<svg width="45" height="23" viewBox="0 0 45 23" fill="none" xmlns="http://www.w3.org/2000/svg">
<path d="M44.632 10.1403C43.1641 4.75633 37.6745 1.59253 32.3923 3.08529C30.8941 3.51078 29.5077 4.29282 28.366 5.35059L23.219 0.0997609C23.0908 -0.030975 22.8648 -0.030975 22.7366 0.0997609L21.5413 1.31917C21.4761 1.38573 21.4411 1.4713 21.4411 1.56638C21.4411 1.66146 21.4761 1.74703 21.5413 1.81359L27.5458 7.93678C27.7649 8.15784 28.0747 8.28382 28.4336 8.29096C28.7644 8.27669 29.0767 8.11981 29.2887 7.86309C30.2696 6.68172 31.5628 5.83788 33.0307 5.4219C34.9786 4.86805 37.0198 5.12477 38.7789 6.13738C40.8247 7.31638 42.1971 9.36774 42.5489 11.7638C42.747 13.1234 42.5792 14.514 42.062 15.7809C41.1532 18.0106 39.3381 19.6555 37.0827 20.2949C35.1348 20.8463 33.0936 20.592 31.3345 19.577C29.9015 18.7522 28.804 17.5162 28.147 15.9925L35.2303 13.9958C35.412 13.9459 35.5192 13.7533 35.468 13.5679L35.0183 11.9064C34.9693 11.721 34.7806 11.6116 34.5989 11.6639L22.9277 14.9514L25.2857 9.672C25.4744 9.24652 25.4045 8.74021 25.1086 8.38366C24.808 8.02473 24.328 7.87498 23.89 8.00334L19.2416 9.31307C17.4521 4.41404 12.2421 1.68523 7.27917 3.08767C1.99931 4.58281 -1.1043 10.1831 0.363622 15.5718C1.07428 18.1817 2.73793 20.3519 5.04933 21.6831C7.33742 22.9999 10.0706 23.3422 12.5986 22.6244C14.4906 22.0895 16.1659 21.0104 17.4451 19.501C17.5057 19.4296 17.5337 19.3393 17.5267 19.2442C17.5197 19.1492 17.4777 19.066 17.4055 19.0042L16.1147 17.8893C15.9749 17.7681 15.7605 17.7848 15.6393 17.9274C14.6677 19.066 13.3955 19.8837 11.9625 20.2901C10.024 20.8416 7.98284 20.5873 6.22133 19.5699C4.4575 18.5549 3.18763 16.9029 2.64939 14.9205C2.10882 12.938 2.36046 10.8558 3.35539 9.05873C4.35031 7.26171 5.96969 5.96861 7.91294 5.41714C11.5991 4.36888 15.5135 6.35606 16.9442 9.95724L9.76532 11.9801C9.58358 12.03 9.47639 12.2225 9.52766 12.4079L9.97735 14.0695C10.0007 14.1598 10.0589 14.2335 10.1381 14.281C10.2173 14.3262 10.3105 14.3381 10.3968 14.3143L22.0679 11.0269L19.7099 16.3062C19.5212 16.7317 19.5911 17.238 19.887 17.5946C20.113 17.8656 20.4415 18.0201 20.7887 18.0201C20.8959 18.0201 21.0031 18.0058 21.1033 17.9749L25.8333 16.6414C26.6767 18.795 28.1703 20.535 30.1601 21.6831C31.656 22.5435 33.3406 22.9999 35.0346 22.9999C35.9316 22.9999 36.8334 22.8739 37.7094 22.6244C40.2678 21.8994 42.3952 20.2022 43.7023 17.8442C45.0095 15.4862 45.3357 12.7502 44.625 10.1403H44.632Z" fill="black"/>
</svg>
