<svg width="127" height="65" viewBox="0 0 127 65" fill="none" xmlns="http://www.w3.org/2000/svg">
<path d="M125.982 28.6547C121.839 13.438 106.344 4.49614 91.4337 8.71515C87.2048 9.9177 83.2915 12.128 80.0689 15.1176L65.5405 0.277125C65.1788 -0.0923749 64.5408 -0.0923749 64.1791 0.277125L60.8051 3.72355C60.621 3.91166 60.5223 4.15351 60.5223 4.42224C60.5223 4.69096 60.621 4.93282 60.8051 5.12093L77.7538 22.4269C78.372 23.0517 79.2467 23.4078 80.2596 23.4279C81.1935 23.3876 82.0748 22.9442 82.6733 22.2187C85.4422 18.8797 89.0924 16.4948 93.2358 15.3191C98.7341 13.7538 104.495 14.4793 109.461 17.3413C115.235 20.6735 119.109 26.4713 120.102 33.2432C120.661 37.086 120.188 41.0161 118.728 44.5969C116.163 50.8986 111.039 55.5475 104.673 57.3547C99.1747 58.9133 93.4134 58.1945 88.4478 55.3258C84.403 52.9946 81.3053 49.5012 79.4506 45.1948L99.4444 39.5516C99.9574 39.4105 100.26 38.8663 100.115 38.3423L98.8459 33.6463C98.7078 33.1223 98.175 32.8132 97.662 32.961L64.7184 42.2523L71.3742 27.3312C71.9069 26.1287 71.7096 24.6977 70.8744 23.69C70.0259 22.6755 68.6711 22.2523 67.4346 22.615L54.3137 26.3168C49.2627 12.4706 34.5568 4.75815 20.548 8.72187C5.64474 12.9476 -3.11568 28.7756 1.02776 44.0057C3.03371 51.3823 7.72961 57.516 14.2539 61.2781C20.7124 65 28.4271 65.9674 35.563 63.9385C40.9035 62.4269 45.6322 59.3769 49.243 55.1108C49.414 54.9093 49.4929 54.654 49.4731 54.3853C49.4534 54.1166 49.335 53.8814 49.1311 53.7067L45.4876 50.5559C45.0929 50.2133 44.4879 50.2603 44.1459 50.6634C41.4033 53.8814 37.8123 56.1925 33.7675 57.3413C28.2956 58.8999 22.5342 58.1811 17.5621 55.3057C12.5834 52.437 8.99895 47.7679 7.47969 42.1649C5.95385 36.562 6.66415 30.6769 9.47249 25.5979C12.2808 20.519 16.8518 16.8643 22.3369 15.3057C32.7415 12.343 43.7907 17.9594 47.8289 28.1374L27.5655 33.8546C27.0525 33.9956 26.75 34.5398 26.8947 35.0638L28.164 39.7598C28.2298 40.0151 28.3942 40.2234 28.6178 40.3577C28.8414 40.4854 29.1045 40.519 29.3479 40.4518L62.2915 31.1606L55.6357 46.0816C55.103 47.2842 55.3003 48.7151 56.1355 49.7229C56.7735 50.4887 57.7008 50.9254 58.6808 50.9254C58.9833 50.9254 59.2859 50.8851 59.5687 50.7978L72.9198 47.0289C75.3006 53.1156 79.5164 58.0333 85.1331 61.2781C89.3554 63.7101 94.1105 65 98.8919 65C101.424 65 103.969 64.6439 106.442 63.9385C113.664 61.8895 119.668 57.0927 123.358 50.4283C127.048 43.7639 127.968 36.0312 125.962 28.6547H125.982Z" fill="white"/>
</svg>
