<?xml version="1.0" encoding="UTF-8"?>
<svg id="Layer_2" data-name="Layer 2" xmlns="http://www.w3.org/2000/svg" viewBox="0 0 1227.44 262.71">
  <defs>
    <style>
      .cls-1 {
        fill: #fff;
      }
    </style>
  </defs>
  <g id="Layer_1-2" data-name="Layer 1">
    <g>
      <path class="cls-1" d="M406.22,256.07c0-.75,.43-1.12,1.18-1.12h7c.75,0,1.18,.37,1.18,1.12v5.51c0,.7-.43,1.12-1.18,1.12h-7c-.75,0-1.18-.43-1.18-1.12v-5.51Z"/>
      <path class="cls-1" d="M484.11,250.3c.75,0,1.18,.43,1.18,1.12v2.94c0,6.15-2.3,8.34-8.72,8.34h-19.79c-6.1,0-8.98-2.67-8.98-8.56v-20.32c0-5.88,2.89-8.56,8.98-8.56h19.79c6.42,0,8.72,2.19,8.72,8.34v2.94c0,.7-.43,1.12-1.18,1.12h-6.04c-.8,0-1.18-.43-1.18-1.12v-1.82c0-1.66-.81-2.46-2.62-2.46h-13.05c-3.96,0-4.76,.7-4.76,4.01v15.4c0,3.31,.81,4.01,4.76,4.01h13.05c1.82,0,2.62-.8,2.62-2.46v-1.82c0-.7,.37-1.12,1.18-1.12h6.04v.02Z"/>
      <path class="cls-1" d="M556.37,254.15c0,5.88-2.78,8.56-8.93,8.56h-21.5c-6.1,0-8.98-2.67-8.98-8.56v-20.32c0-5.88,2.89-8.56,8.98-8.56h21.5c6.15,0,8.93,2.68,8.93,8.56v20.32Zm-8.66-17.86c0-3.31-.81-4.01-4.76-4.01h-12.57c-3.96,0-4.76,.7-4.76,4.01v15.4c0,3.31,.81,4.01,4.76,4.01h12.57c3.96,0,4.76-.7,4.76-4.01v-15.4Z"/>
      <path class="cls-1" d="M602,225.27c.91,0,1.39,.32,1.66,1.07l10.27,27.7,10.21-27.7c.27-.75,.75-1.07,1.66-1.07h11.61c.8,0,1.23,.43,1.23,1.12v35.19c0,.7-.43,1.12-1.23,1.12h-6.26c-.74,0-1.18-.43-1.18-1.12v-29.14l-11.07,29.2c-.22,.75-.75,1.07-1.66,1.07h-7.06c-.96,0-1.39-.32-1.66-1.07l-11.12-29.3v29.25c0,.7-.43,1.12-1.18,1.12h-5.67c-.8,0-1.18-.43-1.18-1.12v-35.19c0-.7,.37-1.12,1.18-1.12h11.45Z"/>
      <path class="cls-1" d="M671.31,256.07c0-.75,.43-1.12,1.18-1.12h7c.75,0,1.18,.37,1.18,1.12v5.51c0,.7-.43,1.12-1.18,1.12h-7c-.75,0-1.18-.43-1.18-1.12v-5.51h0Z"/>
      <path class="cls-1" d="M741.77,255.54h-20.21l-2.57,6.1c-.32,.75-.75,1.07-1.66,1.07h-6.63c-.7,0-.96-.53-.7-1.18l15.67-35.19c.27-.75,.75-1.07,1.66-1.07h9.09c.91,0,1.33,.32,1.66,1.07l15.67,35.19c.27,.64,0,1.18-.64,1.18h-7.06c-.96,0-1.34-.32-1.66-1.07l-2.62-6.1h0Zm-17.33-6.84h14.44l-7.22-16.95-7.22,16.95Z"/>
      <path class="cls-1" d="M791.84,251.69c0,3.31,.75,4.01,4.76,4.01h11.12c4.01,0,4.81-.7,4.81-4.01v-25.29c0-.7,.43-1.12,1.18-1.12h6.25c.75,0,1.23,.43,1.23,1.12v27.75c0,5.88-2.78,8.56-8.93,8.56h-20.1c-6.15,0-8.98-2.67-8.98-8.56v-27.75c0-.7,.37-1.12,1.18-1.12h6.25c.81,0,1.23,.43,1.23,1.12v25.29h0Z"/>
    </g>
    <g>
      <path class="cls-1" d="M360.86,62.59c14.1,2.53,20.07,11.03,20.07,27.48v8.32c0,19.35-9.04,28.2-29.47,28.2h-96c-2.71,0-3.98-1.45-3.98-3.79V3.84c0-2.35,1.27-3.8,3.98-3.8h94.01c20.43,0,29.65,8.86,29.65,28.21v7.23c0,15.72-5.61,24.23-18.26,27.11h0Zm-80.09-11.39h55.86c10.3,0,13.2-2.71,13.2-11.57v-4.33c0-9.04-2.89-11.57-13.2-11.57h-55.86v27.47Zm0,23.14v28.57h57.67c10.48,0,13.2-2.53,13.2-11.57v-5.43c0-9.04-2.71-11.57-13.2-11.57h-57.67Z"/>
      <path class="cls-1" d="M360.86,62.59c14.1,2.53,20.07,11.03,20.07,27.48v8.32c0,19.35-9.04,28.2-29.47,28.2h-96c-2.71,0-3.98-1.45-3.98-3.79V3.84c0-2.35,1.27-3.8,3.98-3.8h94.01c20.43,0,29.65,8.86,29.65,28.21v7.23c0,15.72-5.61,24.23-18.26,27.11h0Zm-80.09-11.39h55.86c10.3,0,13.2-2.71,13.2-11.57v-4.33c0-9.04-2.89-11.57-13.2-11.57h-55.86v27.47Zm0,23.14v28.57h57.67c10.48,0,13.2-2.53,13.2-11.57v-5.43c0-9.04-2.71-11.57-13.2-11.57h-57.67Z"/>
      <path class="cls-1" d="M517.93,122.79c0,2.35-1.63,3.79-4.16,3.79h-21.15c-2.71,0-3.97-1.45-3.97-3.79V3.83c0-2.35,1.27-3.8,3.97-3.8h21.15c2.53,0,4.16,1.45,4.16,3.8V122.79Z"/>
      <path class="cls-1" d="M710.63,62.77l55.68,60.03c1.45,1.63,.73,3.79-1.45,3.79h-27.65c-2.89,0-4.52-.72-6.33-2.89l-45.01-49.54h-24.77v48.64c0,2.35-1.63,3.79-4.16,3.79h-21.15c-2.71,0-3.97-1.45-3.97-3.79V3.84c0-2.35,1.27-3.8,3.97-3.8h21.15c2.53,0,4.16,1.45,4.16,3.8V50.84h26.58L731.25,2.93c1.81-2.17,3.25-2.89,6.33-2.89h26.22c1.99,0,2.71,2.18,1.27,3.8l-54.42,58.93h-.02Z"/>
      <path class="cls-1" d="M989.37,.03c2.53,0,3.97,1.45,3.97,3.8V19.91c0,2.35-1.45,3.8-3.97,3.8h-89.67v27.47h75.38c2.53,0,4.16,1.27,4.16,3.8v15.54c0,2.35-1.63,3.79-4.16,3.79h-75.38v28.57h89.67c2.53,0,3.97,1.45,3.97,3.79v16.09c0,2.35-1.45,3.79-3.97,3.79h-114.98c-2.71,0-3.97-1.45-3.97-3.79V3.8c0-2.35,1.27-3.8,3.97-3.8h114.98V.03Z"/>
      <path class="cls-1" d="M1121.48,88.98c2.53,0,4.16,1.27,4.16,3.8v1.81c0,5.6,2.35,8.32,8.5,8.32h52.07c9.58,0,11.93-2.35,11.93-9.94v-8.68c0-7.59-2.35-9.94-11.93-9.94h-58.04c-20.43,0-29.46-8.86-29.46-28.2V28.26c0-19.35,9.04-28.21,29.46-28.21h67.26c21.69,0,29.47,7.42,29.47,28.21v5.6c0,2.53-1.45,3.79-3.97,3.79h-20.43c-2.71,0-3.97-1.27-3.97-3.79v-1.81c0-5.61-2.53-8.32-8.86-8.32h-47.72c-9.58,0-11.94,2.35-11.94,9.94v7.41c0,7.78,2.35,10.12,11.94,10.12h57.85c20.61,0,29.64,8.68,29.64,28.2v18.99c0,19.35-9.04,28.2-29.64,28.2h-71.24c-21.69,0-29.46-7.41-29.46-28.2v-5.6c0-2.53,1.44-3.8,3.97-3.8h20.41Z"/>
      <path class="cls-1" d="M133.64,23.72c2.53,0,3.97-1.45,3.97-3.8V3.83c0-2.36-1.45-3.8-3.97-3.8H56.6C25.34,.03,0,25.37,0,56.63v13.36c0,31.16,25.18,56.59,56.3,56.59h77.34c2.53,0,3.97-1.45,3.97-3.79v-16.09c0-2.35-1.45-3.79-3.97-3.79H56.6v-28.57h62.75c2.53,0,4.16-1.44,4.16-3.79v-15.55c0-2.54-1.63-3.8-4.16-3.8H56.6V23.72h77.04Z"/>
    </g>
  </g>
</svg>