<svg width="21" height="21" viewBox="0 0 21 21" fill="none" xmlns="http://www.w3.org/2000/svg">
<path id="Path 5044" d="M10.5001 1.8889C13.2973 1.8889 13.6318 1.88886 14.7377 1.95088C15.4029 1.95683 16.0619 2.07931 16.6848 2.31267C17.1354 2.488 17.5444 2.75506 17.8863 3.0969C18.2281 3.43875 18.4953 3.84791 18.6706 4.29844C18.904 4.92135 19.0263 5.5803 19.0322 6.24546C19.0852 7.3514 19.0944 7.68606 19.0944 10.4819C19.0944 13.2778 19.0943 13.6137 19.0322 14.7183C19.0263 15.3835 18.9039 16.0424 18.6706 16.6654C18.4953 17.1159 18.2281 17.5251 17.8863 17.8669C17.5444 18.2088 17.1354 18.4758 16.6848 18.6512C16.0619 18.8845 15.4029 19.007 14.7377 19.0129C13.6318 19.0659 13.3024 19.0749 10.5001 19.0749C7.69777 19.0749 7.36825 19.0749 6.2636 19.0129C5.59844 19.0069 4.93953 18.8845 4.31662 18.6512C3.86609 18.4758 3.45685 18.2088 3.115 17.8669C2.77315 17.5251 2.50618 17.1159 2.33085 16.6654C2.09795 16.0424 1.97588 15.3834 1.97032 14.7183C1.91734 13.6124 1.90833 13.2778 1.90833 10.4819C1.90833 7.68606 1.9083 7.35011 1.97032 6.24546C1.97586 5.58038 2.09792 4.92143 2.33085 4.29844C2.50618 3.84791 2.77315 3.43875 3.115 3.0969C3.45685 2.75506 3.86609 2.488 4.31662 2.31267C4.93953 2.07933 5.59844 1.95686 6.2636 1.95088C7.36954 1.89791 7.70423 1.8889 10.5001 1.8889ZM10.5001 0C7.65772 0 7.2984 5.36172e-06 6.17953 0.0620209C5.3092 0.0797983 4.44825 0.244914 3.63309 0.550381C2.93099 0.817889 2.29341 1.23082 1.76213 1.76209C1.23086 2.29337 0.817928 2.93095 0.55042 3.63305C0.245049 4.44779 0.0798547 5.30837 0.0619814 6.17827C0.0141778 7.29713 0 7.65376 0 10.4987C0 13.3437 -3.40667e-05 13.7003 0.0619814 14.8191C0.0798049 15.689 0.245001 16.5496 0.55042 17.3643C0.817928 18.0664 1.23086 18.704 1.76213 19.2353C2.29341 19.7666 2.93099 20.1795 3.63309 20.447C4.44825 20.7525 5.30921 20.9176 6.17953 20.9354C7.2984 20.9832 7.65514 20.9974 10.5001 20.9974C13.3451 20.9974 13.7016 20.9974 14.8205 20.9354C15.6904 20.9175 16.5509 20.7524 17.3657 20.447C18.0679 20.1796 18.7055 19.7668 19.2368 19.2355C19.7681 18.7042 20.181 18.0665 20.4484 17.3643C20.7536 16.5496 20.9187 15.689 20.9366 14.8191C20.9844 13.7003 20.9988 13.3437 20.9988 10.4987C20.9988 7.65376 20.9987 7.29713 20.9366 6.17827C20.9186 5.30839 20.7536 4.44783 20.4484 3.63305C20.181 2.93087 19.7681 2.29323 19.2368 1.76194C18.7055 1.23065 18.0679 0.817746 17.3657 0.550381C16.551 0.244985 15.6904 0.0798692 14.8205 0.0620209C13.7016 0.0129253 13.3451 0 10.5001 0ZM10.5001 5.09561C9.43555 5.09561 8.39483 5.41127 7.50969 6.0027C6.62455 6.59413 5.93461 7.43477 5.52723 8.41828C5.11985 9.40179 5.01327 10.484 5.22095 11.5281C5.42863 12.5722 5.94125 13.5312 6.694 14.284C7.44674 15.0367 8.40595 15.5494 9.45004 15.757C10.4941 15.9647 11.5763 15.8581 12.5598 15.4507C13.5433 15.0433 14.3839 14.3535 14.9754 13.4683C15.5668 12.5832 15.8824 11.5426 15.8824 10.478C15.8824 9.05051 15.3154 7.68147 14.306 6.67207C13.2966 5.66267 11.9276 5.09561 10.5001 5.09561ZM10.5001 13.9703C9.81016 13.9703 9.13562 13.7657 8.56196 13.3824C7.9883 12.9991 7.54125 12.4543 7.27722 11.8168C7.01319 11.1794 6.94406 10.478 7.07866 9.80135C7.21326 9.12467 7.54544 8.5031 8.0333 8.01524C8.52116 7.52738 9.14273 7.19516 9.81941 7.06056C10.4961 6.92596 11.1976 6.99506 11.835 7.25908C12.4724 7.52311 13.0171 7.9702 13.4004 8.54386C13.7838 9.11752 13.9884 9.79199 13.9884 10.4819C13.9884 11.4071 13.6209 12.2944 12.9667 12.9486C12.3125 13.6028 11.4253 13.9703 10.5001 13.9703ZM14.8333 4.88372C14.8333 5.13286 14.9073 5.37642 15.0457 5.58357C15.1841 5.79073 15.3808 5.95218 15.611 6.04753C15.8411 6.14287 16.0945 6.16781 16.3388 6.11921C16.5832 6.0706 16.8075 5.95062 16.9837 5.77445C17.1599 5.59828 17.2799 5.37383 17.3285 5.12948C17.3771 4.88512 17.3522 4.63185 17.2569 4.40167C17.1615 4.17149 17 3.97472 16.7929 3.8363C16.5857 3.69789 16.3422 3.62402 16.0931 3.62402C15.7592 3.62436 15.4391 3.75723 15.2031 3.99343C14.9672 4.22963 14.8347 4.54985 14.8347 4.88372H14.8333Z" fill="#0F232E"/>
</svg>
