<?xml version="1.0" encoding="UTF-8"?>
<svg id="Layer_2" data-name="Layer 2" xmlns="http://www.w3.org/2000/svg" viewBox="0 0 1227.44 126.59">
  <g id="Layer_1-2" data-name="Layer 1">
    <path d="M360.86,62.58c14.1,2.53,20.07,11.03,20.07,27.48v8.32c0,19.35-9.04,28.2-29.47,28.2h-96c-2.71,0-3.98-1.45-3.98-3.79V3.83c0-2.35,1.27-3.8,3.98-3.8h94.01c20.43,0,29.65,8.86,29.65,28.21v7.23c0,15.72-5.61,24.23-18.26,27.11h0Zm-80.09-11.39h55.86c10.3,0,13.2-2.71,13.2-11.57v-4.33c0-9.04-2.89-11.57-13.2-11.57h-55.86v27.47Zm0,23.14v28.57h57.67c10.48,0,13.2-2.53,13.2-11.57v-5.43c0-9.04-2.71-11.57-13.2-11.57h-57.67Z"/>
    <path d="M360.86,62.58c14.1,2.53,20.07,11.03,20.07,27.48v8.32c0,19.35-9.04,28.2-29.47,28.2h-96c-2.71,0-3.98-1.45-3.98-3.79V3.83c0-2.35,1.27-3.8,3.98-3.8h94.01c20.43,0,29.65,8.86,29.65,28.21v7.23c0,15.72-5.61,24.23-18.26,27.11h0Zm-80.09-11.39h55.86c10.3,0,13.2-2.71,13.2-11.57v-4.33c0-9.04-2.89-11.57-13.2-11.57h-55.86v27.47Zm0,23.14v28.57h57.67c10.48,0,13.2-2.53,13.2-11.57v-5.43c0-9.04-2.71-11.57-13.2-11.57h-57.67Z"/>
    <path d="M517.93,122.79c0,2.35-1.63,3.79-4.16,3.79h-21.15c-2.71,0-3.97-1.45-3.97-3.79V3.83c0-2.35,1.27-3.8,3.97-3.8h21.15c2.53,0,4.16,1.45,4.16,3.8V122.79Z"/>
    <path d="M710.63,62.76l55.68,60.03c1.45,1.63,.73,3.79-1.45,3.79h-27.65c-2.89,0-4.52-.72-6.33-2.89l-45.01-49.54h-24.77v48.64c0,2.35-1.63,3.79-4.16,3.79h-21.15c-2.71,0-3.97-1.45-3.97-3.79V3.83c0-2.35,1.27-3.8,3.97-3.8h21.15c2.53,0,4.16,1.45,4.16,3.8V50.83h26.58L731.25,2.92c1.81-2.17,3.25-2.89,6.33-2.89h26.22c1.99,0,2.71,2.18,1.27,3.8l-54.42,58.93h-.02Z"/>
    <path d="M989.37,.03c2.53,0,3.97,1.45,3.97,3.8V19.91c0,2.35-1.45,3.8-3.97,3.8h-89.67v27.47h75.38c2.53,0,4.16,1.27,4.16,3.8v15.54c0,2.35-1.63,3.79-4.16,3.79h-75.38v28.57h89.67c2.53,0,3.97,1.45,3.97,3.79v16.09c0,2.35-1.45,3.79-3.97,3.79h-114.98c-2.71,0-3.97-1.45-3.97-3.79V3.8c0-2.35,1.27-3.8,3.97-3.8h114.98V.03Z"/>
    <path d="M1121.48,88.98c2.53,0,4.16,1.27,4.16,3.8v1.81c0,5.6,2.35,8.32,8.5,8.32h52.07c9.58,0,11.93-2.35,11.93-9.94v-8.68c0-7.59-2.35-9.94-11.93-9.94h-58.04c-20.43,0-29.46-8.86-29.46-28.2V28.26c0-19.35,9.04-28.21,29.46-28.21h67.26c21.69,0,29.47,7.42,29.47,28.21v5.6c0,2.53-1.45,3.79-3.97,3.79h-20.43c-2.71,0-3.97-1.27-3.97-3.79v-1.81c0-5.61-2.53-8.32-8.86-8.32h-47.72c-9.58,0-11.94,2.35-11.94,9.94v7.41c0,7.78,2.35,10.12,11.94,10.12h57.85c20.61,0,29.64,8.68,29.64,28.2v18.99c0,19.35-9.04,28.2-29.64,28.2h-71.24c-21.69,0-29.46-7.41-29.46-28.2v-5.6c0-2.53,1.44-3.8,3.97-3.8h20.41Z"/>
    <path d="M133.64,23.72c2.53,0,3.97-1.45,3.97-3.8V3.83c0-2.36-1.45-3.8-3.97-3.8H56.6C25.34,.03,0,25.37,0,56.63v13.36c0,31.16,25.18,56.59,56.3,56.59h77.34c2.53,0,3.97-1.45,3.97-3.79v-16.09c0-2.35-1.45-3.79-3.97-3.79H56.6v-28.57h62.75c2.53,0,4.16-1.44,4.16-3.79v-15.55c0-2.54-1.63-3.8-4.16-3.8H56.6V23.72h77.04Z"/>
  </g>
</svg>