<svg width="44" height="30" viewBox="0 0 44 30" fill="none" xmlns="http://www.w3.org/2000/svg">
<path d="M43.9931 22.197C43.821 18.2362 40.6872 15.2104 36.966 15.0313L36.7068 10.9124L36.3741 0.451134C36.3649 0.1953 36.1539 -0.00704153 35.9015 0.00226152L34.525 0.046451C34.2726 0.055754 34.073 0.269724 34.0822 0.525558L34.4149 11.0054C34.4149 11.0171 34.4149 11.031 34.4149 11.0427L34.7429 16.2733C34.7544 16.4617 34.8003 16.6501 34.8944 16.8129C35.1353 17.2245 35.578 17.4385 36.0208 17.385C38.8105 17.0547 41.3433 19.0898 41.6668 21.9179C41.9902 24.746 39.9851 27.3137 37.1954 27.6416C35.8442 27.8021 34.5135 27.416 33.4467 26.5601C32.6231 25.8996 32.0381 25.0182 31.7399 24.0227L35.1697 22.4714C35.4014 22.3668 35.5046 22.0923 35.4014 21.8574L34.8416 20.5829C34.7384 20.348 34.4676 20.2434 34.2359 20.348L22.18 25.8019L25.9494 16.9036C26.126 16.4849 26.0457 16.0012 25.7452 15.6639C25.4424 15.3267 24.9743 15.1988 24.5476 15.3383L13.9646 18.7619C13.6962 18.2269 13.3635 17.7246 12.9712 17.2641C11.6819 15.75 9.88785 14.8383 7.91944 14.6918C5.64591 14.522 3.45498 15.4058 1.88805 17.1524C1.0048 18.1362 0.399133 19.3572 0.14448 20.662C-0.309767 22.9878 0.300484 25.3019 1.79629 27.0555C3.08561 28.5696 4.87966 29.4813 6.84806 29.6278C7.0316 29.6418 7.21284 29.6487 7.39408 29.6487C9.00229 29.6487 10.5486 29.1231 11.8333 28.137C12.0444 27.9742 12.0765 27.6625 11.9021 27.4602L11.0005 26.402C10.8445 26.2182 10.5761 26.188 10.3834 26.3322C9.41066 27.0532 8.22916 27.3997 7.01324 27.309C5.34767 27.1858 3.86334 26.2671 2.98008 24.7623C2.6176 24.146 2.39048 23.4529 2.31936 22.7389C2.14271 20.9992 2.78966 19.3619 4.05376 18.2548C5.08384 17.3524 6.39611 16.9105 7.75426 17.0106C9.11012 17.1106 10.3467 17.7408 11.2368 18.7828C11.4249 19.0037 11.5878 19.2386 11.7347 19.4828L7.32296 20.9085C7.08207 20.9876 6.94901 21.2481 7.02471 21.4923L7.44225 22.8226C7.52026 23.0668 7.7772 23.2017 8.01809 23.125L22.8522 18.3269L18.9338 27.5765C18.7801 27.9393 18.7915 28.3649 19.0003 28.6975C19.2228 29.0487 19.5922 29.2394 19.9707 29.2394C20.129 29.2394 20.2873 29.2069 20.4388 29.1394L29.6361 24.9786C30.657 27.9509 33.449 30.0046 36.6058 30.0046C36.9316 30.0046 37.2597 29.9837 37.5923 29.9371C41.3479 29.4301 44.1582 26.0392 43.9931 22.2017V22.197Z" fill="white"/>
</svg>
